<?xml version="1.0" standalone="no"?><!DOCTYPE svg PUBLIC "-//W3C//DTD SVG 1.1//EN" "http://www.w3.org/Graphics/SVG/1.1/DTD/svg11.dtd"><svg t="1506651740817" class="icon" style="" viewBox="0 0 1024 1024" version="1.1" xmlns="http://www.w3.org/2000/svg" p-id="4366" xmlns:xlink="http://www.w3.org/1999/xlink" width="32" height="32"><defs><style type="text/css"></style></defs><path d="M511.283686 862.823134c-197.953468 0-358.916463-161.015184-358.916463-358.865297 0-197.901279 160.962995-358.864274 358.916463-358.864274 197.850114 0 358.813109 160.962995 358.813109 358.864274C870.100888 701.80795 709.133799 862.823134 511.283686 862.823134M511.283686 206.672036c-164.012448 0-297.438273 133.321448-297.438273 297.2858 0 163.961282 133.425825 297.334919 297.438273 297.334919 163.909094 0 297.339012-133.373637 297.339012-297.334919C808.622698 339.997578 675.196873 206.672036 511.283686 206.672036" p-id="4367" fill="#2D71E8"></path><path d="M668.589384 534.696931 511.283686 534.696931c-16.972557 0-30.791284-13.770632-30.791284-30.739095L480.492402 313.167512c0-16.968463 13.818727-30.78719 30.791284-30.78719 16.968463 0 30.686906 13.818727 30.686906 30.78719l0 160.051229 126.618792 0c17.020652 0 30.686906 13.770632 30.686906 30.739095S685.610036 534.696931 668.589384 534.696931" p-id="4368" fill="#2D71E8"></path></svg>