<?xml version="1.0" standalone="no"?><!DOCTYPE svg PUBLIC "-//W3C//DTD SVG 1.1//EN" "http://www.w3.org/Graphics/SVG/1.1/DTD/svg11.dtd"><svg t="1508933116013" class="icon" style="" viewBox="0 0 1024 1024" version="1.1" xmlns="http://www.w3.org/2000/svg" p-id="2704" xmlns:xlink="http://www.w3.org/1999/xlink" width="16" height="16"><defs><style type="text/css"></style></defs><path d="M512 512m-512 0a512 512 0 1 0 1024 0 512 512 0 1 0-1024 0Z" fill="#FFFFFF" p-id="2705"></path><path d="M539.946667 610.133333s-86.826667 103.253333-189.226667 103.253334-123.946667-49.066667-123.946667-84.266667 21.333333-73.6 108.373334-79.146667 204.8 60.16 204.8 60.16z m-78.08-287.573333v-83.84H554.666667v83.84h189.44v36.906667l-189.44 1.28v52.053333l156.373333 1.28a367.146667 367.146667 0 0 1-22.613333 82.346667 403.84 403.84 0 0 1-38.4 79.573333l303.573333 100.266667a576 576 0 0 1-24.106667 53.546666c-13.226667 24.96-31.36 51.84-31.36 51.84l-289.92-137.6a438.4 438.4 0 0 1-110.72 87.253334 282.666667 282.666667 0 0 1-189.653333 26.88c-69.546667-16.426667-118.826667-60.8-110.506667-142.933334s96.213333-110.506667 168.533334-110.506666 209.28 46.72 209.28 46.72 11.52-25.813333 22.613333-55.253334a266.666667 266.666667 0 0 0 14.293333-53.12H320v-29.013333h141.653333v-55.893333l-176.64 1.28v-36.906667zM512 1024A512 512 0 1 0 0 512a512 512 0 0 0 512 512z" fill="#49C0FB" p-id="2706"></path></svg>