<?xml version="1.0" standalone="no"?><!DOCTYPE svg PUBLIC "-//W3C//DTD SVG 1.1//EN" "http://www.w3.org/Graphics/SVG/1.1/DTD/svg11.dtd"><svg t="1507512341131" class="icon" style="" viewBox="0 0 1024 1024" version="1.1" xmlns="http://www.w3.org/2000/svg" p-id="2380" xmlns:xlink="http://www.w3.org/1999/xlink" width="64" height="64"><defs><style type="text/css"></style></defs><path d="M264.673543 123.513058c41.949414 0 76.668147 30.726815 82.508155 70.650083L182.126502 194.163141C187.925578 154.239873 222.685243 123.513058 264.673543 123.513058L264.673543 123.513058zM582.530868 288.25103c78.039377 0 148.689461 31.66007 199.834304 82.816171 51.16531 51.105958 82.805938 121.79595 82.805938 199.844537 0 77.999468-31.640628 148.689461-82.805938 199.85477-51.144844 51.145867-121.794927 82.786495-199.834304 82.786495-77.999468 0-148.689461-31.640628-199.834304-82.786495-51.16531-51.16531-82.786495-121.855302-82.786495-199.85477 0-78.048587 31.621185-148.738579 82.786495-199.844537C433.841408 319.9111 504.5314 288.25103 582.530868 288.25103L582.530868 288.25103zM565.866327 437.516612c-34.361599-21.352307-83.20298 0.576121-109.163235 49.010227-25.980721 48.444339-19.147082 105.021915 15.214517 126.374222 34.361599 21.381983 51.562353-21.054525 77.54205-69.488631C575.380004 494.997768 600.188017 458.898595 565.866327 437.516612L565.866327 437.516612zM716.223776 437.84407c-34.143635-34.034141-81.256652-55.087643-133.315308-55.087643-52.05968 0-99.193163 21.054525-133.336798 55.087643-34.102702 34.024931-55.196113 81.107249-55.196113 133.067668s21.093411 98.993618 55.196113 133.017526c34.143635 34.084283 81.277118 55.137785 133.336798 55.137785 52.058656 0 99.171674-21.053502 133.315308-55.137785 34.103726-34.023908 55.197136-81.058131 55.197136-133.017526S750.327502 471.867978 716.223776 437.84407L716.223776 437.84407zM441.309496 123.215276l-70.689992 117.813243-212.04951 0c-58.037834 0-94.266967 36.2189-94.266967 94.256734l0 471.253994c0 58.017368 36.229133 94.246501 94.266967 94.246501l706.880479 0c58.017368 0 94.246501-36.228109 94.246501-94.246501L959.696973 335.285253c0-58.037834-36.228109-94.256734-94.246501-94.256734l-47.134507 0-70.689992-117.813243L441.309496 123.215276z" p-id="2381" fill="#707070"></path></svg>