<?xml version="1.0" standalone="no"?><!DOCTYPE svg PUBLIC "-//W3C//DTD SVG 1.1//EN" "http://www.w3.org/Graphics/SVG/1.1/DTD/svg11.dtd"><svg t="1510538412714" class="icon" style="" viewBox="0 0 1024 1024" version="1.1" xmlns="http://www.w3.org/2000/svg" p-id="2151" xmlns:xlink="http://www.w3.org/1999/xlink" width="16" height="16"><defs><style type="text/css"></style></defs><path d="M775.084937 33.934672 249.036712 33.934672C131.177584 33.934672 35.698311 129.900463 35.698311 248.24611l0 528.724076C35.698311 895.315833 131.177584 991.281625 249.036712 991.281625l526.048224 0c117.737499 0 213.216772-95.965792 213.216772-214.311438L988.301708 248.24611C988.301708 129.900463 892.822435 33.934672 775.084937 33.934672zM778.855456 448.570139c11.189928 0 16.298373-4.621927 15.325336-13.987409L794.180791 163.591876l47.557192 0 0 275.247892c0 27.974819-14.473928 41.962228-43.300154 41.962228l-43.300154 0 0-32.110227L778.855456 448.691769zM725.7033 188.647583l44.75971 0 0 224.893218-44.75971 0L725.7033 188.647583zM532.920309 176.119729 713.175446 176.119729l0 33.569783-79.667419 0c-16.784891 27.974819-33.083264 47.557192-48.895118 58.62549 27.001782 0.973037 52.179119 0 75.410381-2.797482-3.770519-12.041335-8.878964-25.177337-15.325336-39.164746l39.164746 0c13.014372 25.177337 23.231263 53.517045 30.772301 85.262383l-43.300154 0c-1.824445-3.770519-2.797482-8.392446-2.797482-13.987409-31.623708 4.621927-75.410381 6.93289-131.360019 6.93289l0-36.367265c19.582373-20.433781 33.569783-40.016154 41.962228-58.62549l-46.097636 0L533.041939 176.119729zM530.122827 430.447322c30.772301 0 53.030526-0.486519 67.017936-1.337926l0-51.6926-60.085046 0 0-33.569783 60.085046 0 0-30.772301 47.557192 0 0 30.772301 60.085046 0 0 33.569783-60.085046 0 0 47.557192c0.973037 0 2.310963 0 4.135408 0 18.609336-2.797482 39.529635-6.446371 62.882528-11.189928l0 33.569783c-58.62549 13.987409-119.197054 20.433781-181.593063 19.582373L530.122827 430.447322zM530.122827 558.52334l62.882528 0L593.005355 537.603041l46.097636 0 0 20.920299 62.882528 0 0 30.772301-62.882528 0 0 27.974819 51.6926 0 0 30.772301L539.974829 648.04276l0-30.772301 53.030526 0 0-27.974819-62.882528 0L530.122827 558.52334zM689.457665 670.300986l0 30.772301L541.312755 701.073287l0-30.772301L689.457665 670.300986zM326.149909 162.13232l51.6926 0 0 47.557192c27.974819-8.392446 48.4086-21.406818 61.422972-39.164746l50.354674 0c-19.582373 37.218672-56.801045 61.058083-111.777646 71.274973 0 14.960447 7.419408 21.893337 22.379855 20.920299l34.907709 0c13.014372 0.973037 19.095855-5.594964 18.122817-19.582373l0-9.730372 40.502673 0 0 18.122817c1.824445 31.623708-14.473928 46.584155-48.895118 44.75971l-65.68001 0c-35.394227 0.973037-53.030526-14.838817-53.030526-47.557192-11.189928 1.824445-23.352892 2.797482-36.367265 2.797482l0-27.974819c13.014372-1.824445 25.177337-3.284 36.367265-4.135408L326.149909 162.13232zM259.131973 346.522865l0 76.869937L208.777299 423.392802l0-110.31809 255.665518 0 0 110.31809L412.750218 423.392802l0-76.869937L259.131973 346.522865zM309.365017 387.147167l0-27.974819L365.314655 359.172348l0 27.974819c-4.621927 33.569783 37.218672 55.463119 125.765055 65.68001l0 30.772301c-70.788455-2.797482-121.508018-15.811854-152.280318-39.164746-31.623708 23.231263-84.775864 36.367265-159.213208 39.164746l0-30.772301C271.659827 444.313101 314.959981 422.541394 309.365017 387.147167zM176.667072 230.609811c33.569783-13.014372 56.314527-35.880746 68.477491-68.477491l51.6926 0c-8.392446 21.406818-18.609336 39.164746-30.772301 53.030526L266.064863 300.425229 215.831819 300.425229l0-51.6926c-11.189928 3.770519-24.2043 7.905927-39.164746 12.527854L176.667072 230.609811zM259.131973 861.746051 207.439373 861.746051l0-197.040029c-11.189928 5.594964-23.231263 9.730372-36.367265 12.527854l0-29.312745c30.772301-17.636299 50.719563-53.517045 60.085046-107.520608l54.490082 0c-7.419408 31.623708-16.298373 56.801045-26.515263 75.410381L259.131973 861.746051zM295.499238 663.246466l46.097636 0c12.041335 27.974819 20.920299 57.287564 26.515263 88.059865l-48.895118 0C314.473463 721.507067 306.567536 692.194322 295.499238 663.246466zM496.674674 625.541276l-39.164746 0 0 183.052619c0.973037 33.569783-15.811854 49.868155-50.354674 48.895118l-47.557192 0 0-33.569783 26.515263 0c13.014372 0.973037 19.095855-5.594964 18.122817-19.582373l0-178.795581L278.714346 625.541276l0-36.367265 125.765055 0 0-47.557192 53.030526 0 0 47.557192L496.674674 589.174011 496.674674 625.541276zM525.987419 846.299085l0-25.177337c13.987409-12.041335 20.920299-29.312745 20.920299-51.6926l37.705191 0C581.815427 809.566932 562.354684 835.109158 525.987419 846.299085zM598.600319 857.489013l-23.717781 0 0-30.772301 8.392446 0c10.21689 0.973037 14.838817-2.797482 13.987409-11.189928l0-60.085046-65.68001 0 0-32.110227L703.445074 723.331512l0 32.110227-62.882528 0 0 60.085046C641.413954 844.474641 627.426545 858.46205 598.600319 857.489013zM852.927911 863.083977c-40.016154-27.001782-67.017936-57.287564-81.005345-90.857346-16.784891 37.218672-44.273192 67.017936-82.464901 89.397791l0-30.772301c-24.2043-8.392446-37.218672-28.826226-39.164746-61.422972L685.200627 769.429148c0.973037 18.609336 6.081482 31.623708 15.325336 39.164746l0 5.594964c32.596745-34.42119 47.922081-87.573346 46.097636-159.213208l0-18.122817 47.557192 0 0 19.582373c-2.797482 69.815418 16.784891 126.738092 58.62549 170.403136L852.806281 863.083977zM852.927911 646.583205l-41.962228 0L810.965683 603.28305l-53.030526 0c-11.189928 23.231263-31.623708 40.502673-61.422972 51.6926l0-30.772301c18.609336-16.784891 28.461337-44.75971 29.312745-83.802827l48.895118 0c-0.973037 11.189928-2.797482 20.920299-5.594964 29.312745l83.802827 0L852.927911 646.583205z" p-id="2152" fill="#8a8a8a"></path></svg>