<?xml version="1.0" standalone="no"?><!DOCTYPE svg PUBLIC "-//W3C//DTD SVG 1.1//EN" "http://www.w3.org/Graphics/SVG/1.1/DTD/svg11.dtd"><svg t="1508381211013" class="icon" style="" viewBox="0 0 1024 1024" version="1.1" xmlns="http://www.w3.org/2000/svg" p-id="2396" xmlns:xlink="http://www.w3.org/1999/xlink" width="64" height="64"><defs><style type="text/css"></style></defs><path d="M823.854545 0.465455h-623.70909C89.646545 0.465455 0.279273 89.832727 0.279273 200.052364V823.854545c0 110.219636 89.367273 199.773091 199.68 199.773091H823.854545a199.866182 199.866182 0 0 0 199.773091-199.773091V200.052364A199.773091 199.773091 0 0 0 823.854545 0.465455zM363.054545 873.099636s-40.680727-45.614545-79.034181-83.130181a2917.189818 2917.189818 0 0 0-123.345455-31.092364L244.829091 613.469091c44.404364 57.902545 122.135273 107.52 195.863273 125.579636l-77.451637 134.144zM239.709091 431.010909c0-146.897455 125.858909-280.017455 272.384-280.017454 146.618182 0 272.384 126.138182 272.384 273.035636 0 146.804364-125.765818 273.035636-272.384 273.035636-146.525091 0-272.384-119.156364-272.384-266.053818z m507.438545 352.069818c-38.353455 37.236364-86.109091 90.018909-86.109091 90.018909l-77.544727-134.237091c73.728-17.966545 144.477091-67.584 188.974546-125.486545l90.949818 145.501091s-61.905455 8.657455-116.270546 24.203636zM651.822545 361.006545l-61.44-9.402181a28.299636 28.299636 0 0 1-23.086545-16.197819l-27.741091-59.578181a30.533818 30.533818 0 0 0-27.554909-17.501091 30.533818 30.533818 0 0 0-27.461818 17.594182l-28.113455 60.136727a27.927273 27.927273 0 0 1-22.714182 15.453091l-61.53309 9.495272a30.347636 30.347636 0 0 0-17.221819 51.2l48.407273 49.989819a27.554909 27.554909 0 0 1 7.261091 22.341818l-11.357091 69.818182a30.440727 30.440727 0 0 0 44.590546 31.557818l53.248-28.672a27.648 27.648 0 0 1 28.299636-0.837818l54.644364 29.323636a30.533818 30.533818 0 0 0 44.683636-31.464727l-10.798546-66.839273v-0.930909a27.554909 27.554909 0 0 1 7.447273-25.134546l47.569455-49.152a30.347636 30.347636 0 0 0-17.128728-51.2z" fill="#f4ea2a" p-id="2397"></path></svg>