<?xml version="1.0" standalone="no"?><!DOCTYPE svg PUBLIC "-//W3C//DTD SVG 1.1//EN" "http://www.w3.org/Graphics/SVG/1.1/DTD/svg11.dtd"><svg t="1507792721199" class="icon" style="" viewBox="0 0 1026 1024" version="1.1" xmlns="http://www.w3.org/2000/svg" p-id="2926" xmlns:xlink="http://www.w3.org/1999/xlink" width="64.125" height="64"><defs><style type="text/css"></style></defs><path d="M1017.18347 332.929293c10.989899-16.420202 7.369697-38.4-7.369697-51.2-16.420202-12.8-38.4-9.179798-51.2 7.369697-1.810101 1.810101-205.058586 241.648485-446.707071 241.648485-234.278788 0-446.707071-241.648485-448.517172-243.458586-12.8-14.610101-36.589899-16.420202-51.2-3.620202-14.610101 12.8-16.420202 36.589899-3.620202 51.2 3.620202 5.430303 47.579798 54.949495 117.139394 109.89899l-93.349495 96.969697c-14.610101 14.610101-12.8 38.4 1.810101 51.2 3.620202 7.369697 12.8 10.989899 21.979798 10.989899s18.359596-3.620202 25.6-10.989899l100.719192-104.339394c47.579798 32.969697 104.339394 64.129293 166.529293 85.979798l-38.4 129.939394c-5.430303 20.169697 5.430303 40.339394 25.6 45.769697 3.620202 0 7.369697 0 10.989899 0 16.420202 0 31.159596-10.989899 34.779798-27.410101l38.4-129.939394c29.349495 5.430303 60.379798 9.179798 91.539394 9.179798s62.189899-3.620202 91.539394-9.179798l38.4 128.129293c3.620202 16.420202 20.169697 27.410101 34.779798 27.410101 3.620202 0 7.369697 0 9.179798-1.810101 20.169697-5.430303 31.159596-25.6 25.6-45.769697l-38.4-128.129293c62.189899-21.979798 118.949495-53.139394 166.529293-85.979798l98.909091 102.529293c7.369697 7.369697 16.420202 10.989899 25.6 10.989899 9.179798 0 18.359596-3.620202 25.6-10.989899 14.610101-14.610101 14.610101-36.589899 1.810101-51.2l-93.349495-96.969697C973.223874 385.939394 1017.18347 332.929293 1017.18347 332.929293L1017.18347 332.929293z" p-id="2927"></path></svg>