<?xml version="1.0" standalone="no"?><!DOCTYPE svg PUBLIC "-//W3C//DTD SVG 1.1//EN" "http://www.w3.org/Graphics/SVG/1.1/DTD/svg11.dtd"><svg t="1507515584249" class="icon" style="" viewBox="0 0 1024 1024" version="1.1" xmlns="http://www.w3.org/2000/svg" p-id="3217" xmlns:xlink="http://www.w3.org/1999/xlink" width="64" height="64"><defs><style type="text/css"></style></defs><path d="M1005.725 382.114V178.906H18.275v203.208c73.18 0 132.51 58.15 132.51 129.887 0 71.73-59.33 129.88-132.51 129.88v203.213h987.45V641.881c-73.182 0-132.518-58.15-132.518-129.88 0-71.738 59.329-129.887 132.518-129.887zM654.684 491.966v47.575H543.6v66.187h111.082v47.881H543.6v95.15h-60.676v-95.15H368.418v-47.881h114.507V539.54H368.418v-47.575h96.455L346.95 276.34h69.384l82.458 168.044c4.561 9.36 9.75 21.25 15.559 35.685h1.246c4.148-11.59 9.54-23.992 16.18-37.209l82.764-166.52h65.038L560.092 491.966h94.592z" fill="#FFCA28" p-id="3218"></path></svg>