<?xml version="1.0" standalone="no"?><!DOCTYPE svg PUBLIC "-//W3C//DTD SVG 1.1//EN" "http://www.w3.org/Graphics/SVG/1.1/DTD/svg11.dtd"><svg t="1507950424537" class="icon" style="" viewBox="0 0 1029 1024" version="1.1" xmlns="http://www.w3.org/2000/svg" p-id="3066" xmlns:xlink="http://www.w3.org/1999/xlink" width="64.3125" height="64"><defs><style type="text/css"></style></defs><path d="M912.192472 637.477153l-36.556186-36.556186 32.862472-32.862472 36.556186 36.556186-32.862472 32.862472Z" p-id="3067"></path><path d="M842.966736 537.527263l-39.667426-39.667426 19.639702-19.639702 39.667426 39.667426-19.639702 19.639702Z" p-id="3068"></path><path d="M814.563828 565.920953l-39.66831-39.66831 19.252565-19.252565 39.66831 39.66831-19.252565 19.252565Z" p-id="3069"></path><path d="M640.75 0l-640.75 0L1028.2275 1024 1028.2275 387.47875 640.75 0zM832.27125 410.15125c5.3125 7.13125 10.88625 13.7425 16.72125 19.835 8.945-8.945 16.20125-17.50125 21.78-25.6675 2.59125 4.14625 4.925 7.325 7 9.52875 2.0725 2.205 3.95375 4.14625 5.64 5.8325 1.685 1.685 2.26625 2.78875 1.75 3.30625-0.52 0.52-1.8475 0.68125-3.98625 0.48625-2.13875-0.19375-4.7 1.20125-7.68125 4.18125l-13.4175 13.4175 39.6675 39.66875c11.6675-11.6675 19.31625-20.35375 22.94625-26.0575 3.88625 6.48 7.96875 11.9925 12.25125 16.52875 1.81375 2.075 2.43 3.40375 1.84875 3.98625-0.58375 0.58375-1.52625 0.7475-2.82 0.48625-4.02125-0.90875-7.32625-0.06375-9.9175 2.52625l-13.4175 13.4175c5.1825 5.1825 11.21125 10.17875 18.085 14.97375l-11.6675 11.6675c-4.15-5.96125-9.2075-11.92875-15.1675-17.89l-76.42125 76.42125c5.7025 5.7025 12.1825 11.1525 19.44625 16.335l-12.44625 12.44375c-5.44625-7.52-12.57625-15.68875-21.38875-24.5025l-50.5575-50.5575c-12.70625-12.70625-22.81875-21.77875-30.33625-27.2225l12.44625-12.44375c5.44125 7.52 12.5075 15.62 21.19375 24.305l76.42125-76.42125c-6.74125-6.7425-13.28875-12.37625-19.63875-16.9175L832.27125 410.15125zM780.35 574.855l14.19375 1.36125c0.12875 18.27875-1.4275 35.90875-4.66625 52.89l-16.3325-2.33125C778.72875 609.14625 780.9975 591.8375 780.35 574.855zM668.15 206.365c3.10875 23.075 4.1475 45.6325 3.11125 67.67l-20.0275-0.585c3.6275-24.11125 3.49625-46.02-0.39-65.72375L668.15 206.365zM682.93 319.9275c-1.5575 20.2225-5.31875 44.98375-11.27875 74.28l-19.0575-4.665c7.645-26.05875 11.92625-50.3 12.835-72.7275L682.93 319.9275zM656.87125 451.37625c2.85 0.77875 6.6125-1.16625 11.2775-5.8325l82.44875-82.45-33.25125-33.25125c-19.3175-19.3175-33.70875-32.93-43.17-40.83625l12.25125-12.25125c7.905 9.4625 21.51875 23.8525 40.83625 43.17l33.25125 33.25125 12.44625-12.44375c11.27625-11.27875 18.08125-18.60375 20.4175-21.975 3.11 4.6675 7.71125 10.04625 13.80625 16.14125 1.945 1.945 2.46125 3.3725 1.555 4.2775-0.65 0.65125-2.5275 0.7775-5.63875 0.39-3.11125-0.39-6.35375 1.10375-9.7225 4.4725l-21.00125 21.00125c11.53625 11.53625 21.38875 20.6125 29.5575 27.2225l-12.25125 12.25125c-6.48375-8.03875-15.555-17.89-27.2225-29.5575l-85.56 85.55875c-5.3175 5.3175-10.2425 8.42625-14.77875 9.33625-4.53875 0.90375-9.92-0.45375-16.14-4.085-6.22375-3.63-14.71375-10.17625-25.47125-19.64125 5.3125-5.3125 8.61625-12.63875 9.91625-21.9725 7.38625 9.98 12.93125 16.82125 16.62625 20.515C650.74625 448.3625 654.01625 450.6 656.87125 451.37625zM477.19625 312.34125c-6.7375 1.68375-13.7725 1.1325-21.0975-1.6525-7.3225-2.7875-15.26375-7.87625-23.82-15.26375-8.55625-7.39-20.5825-18.8325-36.07125-34.32125-15.4925-15.49375-29.03625-29.29875-40.64125-41.42-11.6-12.1225-18.92875-20.28875-21.9725-24.50125-3.0475-4.21375-4.73-8.17-5.055-11.8625-0.325-3.69625 0.61375-7.35875 2.81875-10.98625 2.2025-3.63 5.83375-7.97125 10.89-13.02875l59.3075-59.3075c11.92625-11.92625 20.6775-21.32625 26.2525-28.19625 3.23875 5.5725 6.705 10.33875 10.4025 14.2925 3.69125 3.9525 4.6975 6.77625 3.01375 8.46-1.03875 1.03875-2.92 1.1025-5.64 0.19375-1.8175-0.51625-6.28875 2.655-13.4175 9.5275l103.255 103.25625 50.17-50.17c-64.17-64.17-104.81375-103.515-121.9225-118.035l14.195-14.195c10.88875 14.00125 31.95375 36.62125 63.1975 67.86625 31.24 31.23875 54.70625 53.15 70.3925 65.725-5.3175 3.76125-11.60375 9.27-18.8625 16.52875l-53.865 53.8625c-7.38875 7.39-13.7425 14.64875-19.05625 21.78L495.86375 237.0875l19.835-19.83375-103.255-103.255-55.03 55.03c-4.92875 4.92875-7.49 9.30125-7.68125 13.1275-0.1975 3.825 2.0425 8.4575 6.70875 13.90125 7.775 9.0775 19.37875 21.32375 34.8075 36.7525 8.16625 8.16625 19.1525 18.765 32.96 31.7925 13.80625 13.03 24.045 21.4575 30.72375 25.28125 6.675 3.825 12.76625 5.1225 18.27875 3.88875 5.50875-1.23125 12.01875-4.95875 19.5425-11.18125 1.945 7.39 4.925 13.48125 8.945 18.27875C492.10125 306.83125 483.935 310.66 477.19625 312.34125zM617.105 482.0025c-15.1025-15.1025-27.58-29.52625-37.43-43.265-9.85375-13.74125-17.4375-30.65875-22.75125-50.7525-1.94875-6.87-4.50625-11.89625-7.6825-15.07-3.1775-3.17875-8.33-5.15375-15.4575-5.93125-7.135-0.7775-16.9825-0.715-29.5575 0.19375 1.2975-7.7825 0.845-14.845-1.36125-21.195 27.9975 1.2975 46.21375 4.86125 54.6425 10.695l59.50375-59.50375c-12.1875-12.18625-22.4925-21.715-30.9175-28.585l12.63875-12.63875c5.57125 7.39 12.31375 15.03625 20.2225 22.94625 7.905 7.905 15.55375 14.64625 22.94625 20.2225-5.44875 3.36875-13.67875 10.5675-24.69625 21.585l-49.78 49.78c1.8125 4.1475 3.62625 9.7225 5.445 16.72375 5.8325 22.945 22.62 48.28875 50.3625 76.03125 18.01625 18.01625 39.73 35.9725 65.14125 53.86375-6.745 1.555-13.93625 5.63625-21.58375 12.25125C648.76875 512.88875 632.2075 497.105 617.105 482.0025zM767.71 562.605c-0.77625 0.77625-2.37 0.48625-4.76375-0.875-2.4-1.36125-6.1925-1.78-11.37625-1.265-20.22375 2.3325-40.64125 3.56125-61.2525 3.695 1.16625-6.3575 0.32125-12.5125-2.5275-18.47125 25.1475 5.18375 50.42375 3.49875 75.8375-5.0575 0.1275 7.1275 1.035 12.38125 2.7225 15.75125C768.0325 559.755 768.48875 561.82625 767.71 562.605zM986.4725 586.13375l-121.34 121.34c-8.0375 8.0375-15.26375 10.65875-21.6825 7.87625-6.41625-2.79-14.93875-9.3675-25.57-19.7375 1.295-1.03875 2.40125-2.01125 3.3075-2.9175 4.15-4.14875 6.285-9.92 6.41625-17.30625 5.44375 7.77875 9.68875 13.18875 12.73625 16.23625 3.045 3.045 5.89875 4.66375 8.555 4.8625 2.65875 0.19 6.58-2.3 11.765-7.4875l41.61375-41.61375-36.75125-36.75125c-14 13.22375-27.81125 23.5925-41.41875 31.11375-13.61625 7.52125-29.5575 13.4175-47.83625 17.69625 0.1275-5.3175-2.13875-11.475-6.80625-18.47375 18.15-1.5575 34.64375-6.5825 49.49-15.07125 14.84125-8.49125 35.87625-26.3475 63.1-53.57125l45.3075-45.3075c11.2775-11.2775 19.25-19.64125 23.9175-25.08375 6.60875 7.6475 16.33375 17.89 29.16875 30.72375 12.83375 12.83375 23.1375 22.62125 30.9175 29.3625C1006.045 566.8175 997.75 574.855 986.4725 586.13375z" p-id="3070"></path><path d="M954.195683 595.475321l-36.556186-36.556186 35.584808-35.584808 36.556186 36.556186-35.584808 35.584808Z" p-id="3071"></path><path d="M891.196287 489.293014l-19.44525 19.44525-39.667426-39.667426 19.44525-19.44525 39.667426 39.667426Z" p-id="3072"></path></svg>