<?xml version="1.0" standalone="no"?><!DOCTYPE svg PUBLIC "-//W3C//DTD SVG 1.1//EN" "http://www.w3.org/Graphics/SVG/1.1/DTD/svg11.dtd"><svg t="1507984163110" class="icon" style="" viewBox="0 0 1024 1024" version="1.1" xmlns="http://www.w3.org/2000/svg" p-id="8963" xmlns:xlink="http://www.w3.org/1999/xlink" width="64" height="64"><defs><style type="text/css"></style></defs><path d="M423.38304 622.145536c0.137216 0.022528 0.262144 0.06144 0.397312 0.083968l150.632448 23.422976 56.428544 143.024128c7.704576 19.52768 26.406912 31.442944 46.200832 31.442944 6.06208 0 12.228608-1.11616 18.214912-3.475456 25.501696-10.06592 38.023168-38.903808 27.96544-64.405504l-66.869248-169.486336c-6.457344-16.357376-21.190656-28.141568-38.559744-30.84288l-124.803072-19.412992c-0.647168-29.288448 2.578432-59.619328 7.190528-88.516608-9.12384-7.174144-17.209344-14.47936-24.240128-21.506048-33.544192-33.380352-50.42176-66.103296-54.800384-75.33568l-0.024576-0.055296-0.169984-0.366592c-4.397056-9.65632-4.763648-20.453376-1.040384-30.384128 3.721216-9.9328 11.096064-17.823744 20.752384-22.21056 5.21216-2.377728 10.739712-3.57376 16.431104-3.57376 15.542272 0 29.741056 9.136128 36.171776 23.27552l0.196608 0.391168c0.292864 0.600064 0.780288 1.562624 1.46432 2.840576 1.384448 2.605056 3.713024 6.7584 6.95296 11.812864 3.790848 5.933056 9.279488 13.799424 16.412672 22.347776 7.161856-37.543936-7.931904-78.946304-39.432192-86.796288-33.910784-8.456192-83.06688 9.961472-103.067648 68.122624-27.029504 80.140288-32.841728 132.298752-22.56896 220.540928C363.153408 604.203008 393.15456 618.643456 423.38304 622.145536z" fill="#1296db" p-id="8964"></path><path d="M812.7488 546.852864c33.449984 0 33.449984-121.153536 0-121.153536-33.45408 0-60.575744 27.119616-60.575744 60.575744S779.292672 546.852864 812.7488 546.852864z" fill="#1296db" p-id="8965"></path><path d="M495.18592 333.1584c-3.342336-5.220352-5.758976-9.515008-7.28064-12.355584-0.755712-1.421312-1.292288-2.480128-1.601536-3.1232-0.129024-0.264192-0.223232-0.454656-0.282624-0.567296l0.004096 0c-7.272448-15.976448-26.107904-23.033856-42.084352-15.763456-15.982592 7.262208-23.033856 26.099712-15.771648 42.074112 1.056768 2.187264 17.03936 37.265408 53.389312 73.428992 35.956736 35.954688 94.447616 73.224192 175.069184 73.228288 0.1536 0 0.294912 0 0.448512 0 4.724736 0 9.48224-0.131072 14.280704-0.374784 17.526784-0.894976 31.012864-15.8208 30.119936-33.349632-0.892928-17.526784-15.828992-31.010816-33.345536-30.11584-3.79904 0.19456-7.483392 0.284672-11.055104 0.284672-60.880896-0.131072-102.240256-26.816512-130.762752-54.80448C512.233472 357.773312 501.864448 343.6032 495.18592 333.1584z" fill="#1296db" p-id="8966"></path><path d="M561.85856 228.964352c-10.930176 5.849088-22.677504 7.68-34.625536 7.68-10.438656-0.008192-21.096448-1.37216-31.852544-2.77504-10.037248-1.304576-18.898944-3.371008-26.804224-6.18496 12.140544 15.704064 29.554688 27.492352 50.397184 32.342016 48.060416 11.196416 96.094208-18.696192 107.296768-66.75456 4.950016-21.266432 1.847296-42.520576-7.305216-60.585984-16.003072 1.964032-37.537792 5.947392-48.408576 14.340096-4.962304 3.807232-7.479296 7.811072-7.520256 12.988416 0 0.26624 0.008192 0.540672 0.03072 0.847872 1.017856 19.218432 5.390336 32.602112 5.453824 45.883392 0.018432 6.848512-1.306624 13.682688-5.031936 20.598784C563.130368 228.020224 562.546688 228.599808 561.85856 228.964352z" fill="#1296db" p-id="8967"></path><path d="M446.439424 205.131776c10.971136 11.034624 26.689536 17.805312 49.973248 20.862976 10.73152 1.404928 21.090304 2.711552 30.820352 2.701312 10.747904 0 20.666368-1.56672 29.7984-6.17472 2.635776-5.316608 3.530752-10.237952 3.545088-15.777792 0.063488-11.360256-4.308992-25.268224-5.439488-45.430784-0.03072-0.428032-0.038912-0.864256-0.047104-1.298432-0.032768-8.18176 4.503552-14.747648 10.682368-19.331072 6.20544-4.665344 14.206976-7.866368 22.644736-10.278912 14.587904-4.145152 30.62784-5.830656 40.441856-6.73792-1.697792-12.06272-5.502976-23.552-11.096064-34.03776-15.177728-28.479488-43.3664-49.432576-77.79328-53.932032-4.544512-0.598016-9.05216-0.88064-13.512704-0.88064-0.006144 0-0.01024 0-0.018432 0-51.060736 0.002048-95.46752 37.894144-102.252544 89.911296-0.589824 4.524032-0.88064 9.019392-0.88064 13.457408 0 6.139904 0.548864 12.183552 1.605632 18.089984C428.834816 178.282496 435.458048 194.084864 446.439424 205.131776z" fill="#1296db" p-id="8968"></path><path d="M985.53856 740.00384c-38.49216-50.15552-92.033024-59.881472-129.6896-59.377664-2.363392-6.36928-4.808704-13.029376-7.354368-20.066304-23.076864-63.801344-74.901504-94.189568-105.404416-107.040768l-29.407232-85.764096c-0.925696-2.686976-2.42688-5.085184-4.327424-7.114752-1.32096 19.791872-17.299456 35.964928-37.593088 37.00736-5.015552 0.251904-9.959424 0.382976-14.688256 0.382976l-0.448512 0c-13.494272-0.002048-26.320896-0.997376-38.494208-2.801664-0.059392 2.490368 0.323584 5.033984 1.257472 7.507968 3.87072 10.26048 15.331328 15.43168 25.597952 11.558912l0-0.008192 37.758976-14.270464 89.606144 261.320704c15.511552-16.951296 35.110912-29.835264 57.475072-37.419008 14.381056-4.876288 29.319168-7.354368 44.378112-7.354368 47.976448 0 91.570176 24.73984 116.539392 63.95904C1005.606912 779.812864 1009.412096 771.110912 985.53856 740.00384z" fill="#1296db" p-id="8969"></path><path d="M836.20864 742.723584c-61.894656 20.985856-95.062016 88.178688-74.074112 150.075392 20.985856 61.894656 88.172544 95.062016 150.075392 74.07616 61.896704-20.985856 95.062016-88.180736 74.07616-150.075392C965.298176 754.90304 898.111488 721.73568 836.20864 742.723584zM889.22112 899.074048c-24.45312 8.2944-51.003392-4.816896-59.287552-29.263872-8.286208-24.45312 4.818944-51.003392 29.263872-59.287552 24.45312-8.2944 51.003392 4.818944 59.287552 29.263872C926.779392 864.239616 913.676288 890.779648 889.22112 899.074048z" fill="#1296db" p-id="8970"></path><path d="M737.540096 834.013184 484.276224 834.013184c-21.897216-44.17536-29.425664-89.270272-31.920128-118.607872 6.5024-1.990656 11.261952-7.970816 11.261952-15.12448l0-43.69408c0-8.77568-7.112704-15.890432-15.888384-15.890432L123.990016 640.69632c-8.773632 0-15.888384 7.112704-15.888384 15.890432l0 43.69408c0 8.77568 7.114752 15.888384 15.888384 15.888384l1.75104 0c-17.256448 42.3424-43.886592 115.734528-43.886592 165.511168 0 0 26.994688 0 68.489216 0-5.957632-29.72672-2.025472-60.413952 11.614208-88.049664 16.347136-33.101824 44.5952-57.868288 79.55456-69.711872 14.391296-4.882432 29.31712-7.350272 44.386304-7.350272 59.250688 0 111.843328 37.71392 130.875392 93.857792 8.062976 23.775232 9.216 48.242688 4.610048 71.251968 9.508864 0 18.827264 0 27.906048 0 23.943168 0 46.180352 0 65.540096 0l223.83616 0C735.492096 865.861632 735.123456 849.772544 737.540096 834.013184z" fill="#1296db" p-id="8971"></path><path d="M247.88992 742.723584c-61.896704 20.985856-95.062016 88.180736-74.07616 150.075392 20.985856 61.896704 88.172544 95.062016 150.075392 74.07616 61.896704-20.987904 95.062016-88.180736 74.07616-150.075392C376.97536 754.90304 309.792768 721.73568 247.88992 742.723584zM300.9024 899.074048c-24.455168 8.2944-51.003392-4.816896-59.2896-29.263872-8.286208-24.45312 4.818944-51.003392 29.26592-59.287552 24.45312-8.2944 51.001344 4.818944 59.287552 29.263872C338.460672 864.239616 325.357568 890.779648 300.9024 899.074048z" fill="#1296db" p-id="8972"></path><path d="M318.86336 598.310912 318.86336 350.961664c0-11.706368-9.488384-21.198848-21.1968-21.198848L46.780416 329.762816c-11.706368 0-21.194752 9.49248-21.194752 21.198848l0 247.349248c0 11.712512 9.488384 21.202944 21.194752 21.202944l250.888192 0C309.374976 619.511808 318.86336 610.021376 318.86336 598.310912zM230.948864 434.018304l-74.151936 158.879744c-1.191936 2.289664-3.11296 3.432448-5.767168 3.432448-0.366592 0-1.007616-0.09216-1.923072-0.272384-1.55648-0.458752-2.72384-1.327104-3.50208-2.6112-0.77824-1.28-0.985088-2.65216-0.618496-4.11648l27.052032-110.954496-55.750656 13.869056c-0.366592 0.09216-0.915456 0.137216-1.64864 0.137216-1.64864 0-3.065856-0.499712-4.255744-1.509376-1.64864-1.374208-2.244608-3.160064-1.785856-5.35552l27.600896-113.289216c0.366592-1.282048 1.099776-2.33472 2.197504-3.158016 1.099776-0.825344 2.379776-1.234944 3.844096-1.234944l45.039616 0c1.736704 0 3.203072 0.571392 4.39296 1.718272 1.189888 1.144832 1.785856 2.494464 1.785856 4.050944 0 0.733184-0.231424 1.55648-0.688128 2.469888l-23.48032 63.578112 54.378496-13.457408c0.735232-0.182272 1.282048-0.274432 1.650688-0.274432 1.738752 0.004096 3.29728 0.690176 4.66944 2.062336C231.636992 429.807616 231.95648 431.8208 230.948864 434.018304z" fill="#1296db" p-id="8973"></path></svg>