<?xml version="1.0" standalone="no"?><!DOCTYPE svg PUBLIC "-//W3C//DTD SVG 1.1//EN" "http://www.w3.org/Graphics/SVG/1.1/DTD/svg11.dtd"><svg t="1508223347054" class="icon" style="" viewBox="0 0 1024 1024" version="1.1" xmlns="http://www.w3.org/2000/svg" p-id="1135" xmlns:xlink="http://www.w3.org/1999/xlink" width="64" height="64"><defs><style type="text/css"></style></defs><path d="M652.0334375 439.4084375c107.908125 0 195.465-87.8953125 195.465-196.2871875 0-108.4734375-87.555-196.3696875-195.465-196.3696875-107.926875 0-195.405 87.8953125-195.405 196.3696875 0 108.388125 87.478125 196.2871875 195.405 196.2871875zM175.964375 687.231875c-9.16125 0-16.5759375 7.4596875-16.5759375 16.66125v139.44375c0 9.200625 7.41375 16.663125 16.5759375 16.663125h15.6478125c9.159375 0 16.575-7.4596875 16.575-16.663125v-139.44375c0-9.19875-7.41375-16.66125-16.575-16.66125h-15.6478125zM183.8496875 851.8953125c-6.8934375 0-12.43875-5.56875-12.43875-12.4959375 0-6.85125 5.548125-12.493125 12.43875-12.493125 6.825 0 12.4284375 5.5828125 12.4284375 12.493125 0 6.853125-5.5434375 12.4959375-12.4284375 12.4959375zM196.221875 713.6196875c0 6.8521875-5.548125 12.495-12.4284375 12.495-6.8371875 0-12.43875-5.563125-12.43875-12.495 0.0553125-6.9253125 5.600625-12.495 12.43875-12.495 6.823125 0 12.4284375 5.5696875 12.4284375 12.495zM423.336875 687.231875c-9.16875 0-16.575 7.4596875-16.575 16.66125v139.44375c0 9.200625 7.404375 16.663125 16.575 16.663125h15.5878125c9.1546875 0 16.5646875-7.4596875 16.5646875-16.663125v-139.44375c0-9.19875-7.4071875-16.66125-16.5646875-16.66125h-15.5878125zM431.15375 851.8953125c-6.8990625 0-12.435-5.56875-12.435-12.4959375 0-6.85125 5.5359375-12.493125 12.435-12.493125 6.825 0 12.4303125 5.5828125 12.4303125 12.493125 0 6.853125-5.5490625 12.4959375-12.4303125 12.4959375zM443.525 713.6196875c0 6.8521875-5.548125 12.495-12.435 12.495-6.8334375 0-12.4284375-5.563125-12.4284375-12.495 0.058125-6.9253125 5.595-12.495 12.4284375-12.495 6.84375 0 12.435 5.5696875 12.435 12.495zM53.6871875 739.008125h90.1771875v-54.125625c0-6.099375 4.963125-11.0765625 11.0278125-11.0765625h57.9028125c6.06375 0 11.0371875 4.978125 11.0371875 11.0765625v54.125625h167.334375v-54.125625c0-6.099375 4.9584375-11.0765625 11.045625-11.0765625h57.8915625c6.07125 0 11.0334375 4.978125 11.0334375 11.0765625v54.125625h88.1915625c9.159375 0 16.580625-7.44 16.580625-16.663125v-157.9040625c-0.075-9.19875-7.4559375-16.66125-16.580625-16.66125h-152.461875v-43.3903125c0-13.711875-11.14125-24.9103125-24.800625-24.9103125h-151.11375c-13.7165625 0-24.8015625 11.1965625-24.8015625 24.9103125v43.3903125h-152.46c-9.1734375 0-16.575 7.4596875-16.575 16.66125v157.9040625c0 9.225 7.4034375 16.663125 16.575 16.663125h-0.0046875zM222.6584375 504.33875c0-4.5721875 3.7378125-8.3296875 8.295-8.3296875h151.1128125c4.5571875 0 8.295 3.7584375 8.295 8.3296875v43.389375h-167.7009375v-43.389375h-0.001875zM575.909375 933.411875v-167.540625c-1.7390625 0.643125-3.5578125 0.97875-5.548125 0.97875h-99.2259375v101.810625c0 6.095625-4.9621875 11.07375-11.0334375 11.07375h-57.8915625c-6.0853125 0-11.045625-4.9790625-11.045625-11.07375v-101.731875h-167.3334375v101.731875c0 6.095625-4.9584375 11.07375-11.0371875 11.07375h-57.9609375c-6.06375 0-11.0278125-4.9790625-11.0278125-11.07375v-101.731875h-101.20125c-1.93125 0-3.804375-0.418125-5.548125-1.0040625v167.484375c0 9.1978125 7.4034375 16.65375 16.575 16.65375h505.695c9.16125 0 16.580625-7.4559375 16.580625-16.65375l0.0009375 0.00375zM735.0059375 459.5309375h-165.8709375c-55.336875 0-106.4671875 9.9-147.9234375 37.7484375v34.4184375h140.655c21.8840625 0 39.6028125 17.7928125 39.6028125 39.793125v341.59125c0 21.6553125-17.188125 50.2790625-38.58 50.8265625-0.1134375 3.23625-0.6084375 7.02375-3.0665625 10.2253125 40.665 4.5590625 59.82 3.2353125 117.868125 1.5271875 173.859375-5.1103125 309.2540625-66.710625 309.2540625-66.710625v-204.789375c-0.00375-138.57375-113.934375-244.6284375-251.938125-244.6284375z" fill="#FF9D4C" p-id="1136"></path></svg>