<?xml version="1.0" standalone="no"?><!DOCTYPE svg PUBLIC "-//W3C//DTD SVG 1.1//EN" "http://www.w3.org/Graphics/SVG/1.1/DTD/svg11.dtd"><svg t="1507539721494" class="icon" style="" viewBox="0 0 1031 1024" version="1.1" xmlns="http://www.w3.org/2000/svg" p-id="1546" xmlns:xlink="http://www.w3.org/1999/xlink" width="64.4375" height="64"><defs><style type="text/css"></style></defs><path d="M1014.837341 82.121241c0.105308-11.098875-3.90338-22.017907-11.176606-30.408155-7.780382-8.976135-18.954591-14.646166-30.791419-15.626907-0.163657-0.017185-0.326114-0.033171-0.489771-0.048158L707.213296 16.831851c-25.203715-1.820605-47.133499 17.132787-48.959899 42.346894s17.132787 47.133499 42.346694 48.959899l165.06756 11.955924-196.162313 195.416167c-70.391919-63.512147-163.631418-102.182463-265.9054-102.182463-219.301637 0-397.080258 177.778621-397.080258 397.080258s177.778621 397.080258 397.080258 397.080258 397.080258-177.778621 397.080258-397.080258c0-83.991003-26.077949-161.890943-70.577357-226.045128l184.7649-184.062116-10.416672 148.495481c-1.76925 25.217503 17.240293 47.094733 42.458995 48.863783 1.090644 0.076733 2.171897 0.1145 3.249952 0.1145 23.819128 0 43.921514-18.445237 45.614031-42.571097l18.961385-270.307543C1014.798375 83.974018 1014.828149 83.044832 1014.837341 82.121241 1014.840738 81.789532 1014.836142 82.281501 1014.837341 82.121241zM685.16102 729.308344c-15.384319 36.372329-37.426205 69.056489-65.515992 97.146276-28.089786 28.089786-60.773947 50.131672-97.146276 65.515992-37.609245 15.907061-77.612592 23.972394-118.899814 23.972394-41.287222 0-81.290569-8.065133-118.899814-23.972394-36.372329-15.384319-69.056489-37.426205-97.146276-65.515992-28.089786-28.089786-50.131672-60.773947-65.515992-97.146276-15.907261-37.609445-23.972394-77.612592-23.972394-118.899814 0-41.287222 8.065133-81.290569 23.972394-118.899814 15.384319-36.372329 37.426205-69.056489 65.515992-97.146276s60.773947-50.131672 97.146276-65.515992c37.609245-15.907261 77.612592-23.972394 118.899814-23.972394s81.290369 8.065133 118.899814 23.972394c36.372329 15.384319 69.056489 37.426205 97.146276 65.515992 28.089786 28.089786 50.131672 60.773947 65.515992 97.146276 15.907261 37.609445 23.972394 77.612592 23.972394 118.899814C709.133414 651.695951 701.068281 691.700298 685.16102 729.308344z" p-id="1547" fill="#2D71E8"></path></svg>