<?xml version="1.0" standalone="no"?><!DOCTYPE svg PUBLIC "-//W3C//DTD SVG 1.1//EN" "http://www.w3.org/Graphics/SVG/1.1/DTD/svg11.dtd"><svg t="1508382120768" class="icon" style="" viewBox="0 0 1024 1024" version="1.1" xmlns="http://www.w3.org/2000/svg" p-id="3139" xmlns:xlink="http://www.w3.org/1999/xlink" width="64" height="64"><defs><style type="text/css"></style></defs><path d="M864 832h-704c-64 0-115.2-51.2-115.2-115.2V307.2c0-64 51.2-115.2 115.2-115.2h704c64 0 115.2 51.2 115.2 115.2v403.2c0 70.4-51.2 121.6-115.2 121.6zM153.6 256c-25.6 0-51.2 25.6-51.2 51.2v403.2c0 32 25.6 57.6 51.2 57.6h704c32 0 51.2-25.6 51.2-51.2V307.2c0-32-25.6-51.2-51.2-51.2h-704z" p-id="3140" fill="#ffffff"></path><path d="M512 646.4l-460.8-320 38.4-57.6L512 569.6l422.4-300.8 38.4 57.6z" p-id="3141" fill="#ffffff"></path></svg>