<?xml version="1.0" standalone="no"?><!DOCTYPE svg PUBLIC "-//W3C//DTD SVG 1.1//EN" "http://www.w3.org/Graphics/SVG/1.1/DTD/svg11.dtd"><svg t="1507792605150" class="icon" style="" viewBox="0 0 1024 1024" version="1.1" xmlns="http://www.w3.org/2000/svg" p-id="2256" xmlns:xlink="http://www.w3.org/1999/xlink" width="64" height="64"><defs><style type="text/css"></style></defs><path d="M662.273264 415.360073c0 34.131374-25.802778 61.45058-58.20613 61.45058-32.373964 0-58.682218-27.313328-58.682218-61.45058 0-33.602388 26.314132-60.921593 58.682218-60.921593 4.06144 0 7.59977 1.569326 11.661209 2.10419-29.352864-21.523866-65.288669-34.666238-103.722465-34.666238-100.19589 0-181.142555 85.090391-181.142556 190.135323 0 104.48068 80.940788 189.571071 181.142556 189.571071 100.17238 0 181.124923-85.090391 181.124922-189.571071a193.685409 193.685409 0 0 0-33.402548-108.724325c1.028585 4.220135 2.545012 7.893652 2.545012 12.072643z m352.116818 78.260591C929.905086 332.914614 730.5654 170.656871 512.011755 170.656871c-218.577155 0-417.922718 162.257743-501.896361 322.963793l-10.115394 18.391091 10.115394 18.367581c83.973643 160.165308 283.325083 322.957915 501.896361 322.957916 218.553645 0 417.89333-162.792607 502.378327-322.957916l9.633429-18.367581-9.633429-18.391091zM512.011755 777.745104c-180.113971 0-350.635656-133.933463-428.549466-265.733349C161.376099 379.653496 331.891907 246.284284 512.011755 246.284284c180.084583 0 350.612146 133.375089 428.531834 265.727471-77.925565 131.799885-248.447251 265.733349-428.531834 265.733349z" fill="" p-id="2257"></path></svg>