<?xml version="1.0" standalone="no"?><!DOCTYPE svg PUBLIC "-//W3C//DTD SVG 1.1//EN" "http://www.w3.org/Graphics/SVG/1.1/DTD/svg11.dtd"><svg t="1508380923413" class="icon" style="" viewBox="0 0 1024 1024" version="1.1" xmlns="http://www.w3.org/2000/svg" p-id="1625" xmlns:xlink="http://www.w3.org/1999/xlink" width="64" height="64"><defs><style type="text/css"></style></defs><path d="M816.77312 204.88192c-16.54784-39.1168-40.22784-74.24512-70.38464-104.40192S681.10848 46.6432 641.98656 30.09536C601.46688 12.95872 558.44352 4.27008 514.11456 4.27008c-44.33408 0-87.35232 8.68864-127.872 25.82528-39.1168 16.54784-74.24512 40.22784-104.40192 70.38464S228.00384 165.76 211.456 204.88192c-17.13664 40.51968-25.82528 83.54304-25.82528 127.872 0 94.71488 79.10912 256.79872 145.47968 376.0896 33.12128 59.54048 69.45792 119.7568 102.31808 169.55392 14.42304 21.86752 27.3152 40.34048 37.26848 53.43232 14.18752 18.65728 24.75008 30.95552 41.64608 31.89248 0.60416 0.03584 1.21344 0.0512 1.82272 0.0512 18.8416 0 29.85984-14.78656 42.624-31.91296 9.76384-13.10208 22.44096-31.47264 36.65408-53.12512 19.2-29.2352 58.03008-90.14272 102.39488-169.52832 66.94912-119.79776 146.75968-282.35776 146.75968-376.45312 0-44.33408-8.68864-87.35232-25.82528-127.872z m-302.65856 283.136c-87.7056 0-159.06304-71.35744-159.06304-159.06304 0-87.7056 71.35744-159.06304 159.06304-159.06304s159.06304 71.35744 159.06304 159.06304c0 87.7056-71.35744 159.06304-159.06304 159.06304z" fill="#dcdcdc" p-id="1626"></path></svg>