<?xml version="1.0" standalone="no"?><!DOCTYPE svg PUBLIC "-//W3C//DTD SVG 1.1//EN" "http://www.w3.org/Graphics/SVG/1.1/DTD/svg11.dtd"><svg t="1507983628338" class="icon" style="" viewBox="0 0 1024 1024" version="1.1" xmlns="http://www.w3.org/2000/svg" p-id="3811" xmlns:xlink="http://www.w3.org/1999/xlink" width="64" height="64"><defs><style type="text/css"></style></defs><path d="M681.008906 88.856185m-87.712006 0a87.712005 87.712005 0 1 0 175.424011 0 87.712005 87.712005 0 1 0-175.424011 0Z" p-id="3812"></path><path d="M847.860594 322.976243c-22.423993 9.232843-43.526946 14.508581-79.139683-15.828418-35.612737-30.336999-97.604165-89.691159-240.055113-109.475478 0 0-26.817835-7.034719-138.491437 14.509784-114.123181 22.013725-88.372526 38.13691-155.640895 117.992457L167.263894 410.027728s35.787191-4.512952 64.629898 6.595575c24.798978 9.552876 44.419671 40.80185 46.165417 48.801481 0 0 15.828418-147.72428 97.599353-168.893405 65.320497-16.910034 130.079131-18.401919 125.05605-7.849239-5.02308 10.55268-98.671344 69.90684-114.498558 189.933795-14.575956 110.533032 35.612737 188.613958-15.827215 225.544125 0 0-1.10207 20.595231-131.898268 13.192354-69.90684-3.958308-125.303896-22.425196-133.218105 118.708321-4.579124 81.65784 21.104156 88.370119 51.439951 85.732852 30.335796-2.637268 35.612737-51.439952 42.207109-80.458317 6.594372-29.015959 2.330469-26.918898 59.354161-30.336999 0 0 162.23647 2.638471 192.572265-25.06126 30.336999-27.697325 55.397056-106.834601 55.397057-127.939961 0-21.104156 97.606571-6.594372 118.709524 59.355364 21.104156 65.947329-12.256316 228.56399 21.104156 259.837025 21.102953 19.785522 133.218105 67.269573 150.365157 36.933777 17.145848-30.336999 5.273332-60.675201-34.294104-75.182578-39.571045-14.509784-25.061261-17.147052-25.06126-97.605368 0-80.45591 29.018365-228.1838-158.276959-283.580856 0 0-23.497188-89.689956 88.370119-208.398277 0 0 83.095584 51.439952 129.262204 69.905637 46.16301 18.465685 88.370119-5.275738 138.49264-52.758585 50.120115-47.48405 106.067003-107.96314 67.268369-142.449745-8.710683-7.740958-32.371497-14.912834-55.398259 1.319837 0-0.001203-84.724626 91.756939-98.924002 97.602962z" p-id="3813"></path><path d="M267.506529 508.95173s-16.971394-81.77695-117.388484-71.225474l-18.466888-10.551476-87.052689 146.408052 158.278163 94.966898 91.010996-142.449745-26.381098-17.148255zM118.462413 416.623303L38.004096 556.435781l-6.594372 7.913005-23.742627-16.486531 85.709993-145.747533zM329.499161 547.201735l-80.458317 139.812477-6.594372 7.913006-23.741424-16.486532 85.709993-145.747532z" p-id="3814"></path></svg>