<?xml version="1.0" standalone="no"?><!DOCTYPE svg PUBLIC "-//W3C//DTD SVG 1.1//EN" "http://www.w3.org/Graphics/SVG/1.1/DTD/svg11.dtd"><svg t="1506588725040" class="icon" style="" viewBox="0 0 1024 1024" version="1.1" xmlns="http://www.w3.org/2000/svg" p-id="2378" xmlns:xlink="http://www.w3.org/1999/xlink" width="32" height="32"><defs><style type="text/css"></style></defs><path d="M727.934 694.684c60.047-67.008 96.572-155.563 96.572-252.643 0-209.08-169.492-378.596-378.596-378.596-209.102 0-378.598 169.516-378.598 378.596 0 209.129 169.495 378.643 378.598 378.643 95.079 0 181.977-35.056 248.505-92.963l230.23 230.251 33.288-33.286-229.999-230.002z m-282.023 79.174c-182.943 0-331.772-148.873-331.772-331.817 0-182.897 148.828-331.815 331.772-331.815 182.942 0 331.77 148.918 331.77 331.815 0 182.943-148.828 331.817-331.77 331.817z" fill="" p-id="2379"></path></svg>