<?xml version="1.0" standalone="no"?><!DOCTYPE svg PUBLIC "-//W3C//DTD SVG 1.1//EN" "http://www.w3.org/Graphics/SVG/1.1/DTD/svg11.dtd"><svg t="1506735220186" class="icon" style="" viewBox="0 0 1024 1024" version="1.1" xmlns="http://www.w3.org/2000/svg" p-id="2388" xmlns:xlink="http://www.w3.org/1999/xlink" width="64" height="64"><defs><style type="text/css"></style></defs><path d="M805.917257 511.824457a227.064686 227.064686 0 0 0-113.108114-196.4032c-3.042743-1.667657-10.327771-4.798171-15.330743-4.798171a27.209143 27.209143 0 0 0-27.209143 27.150628 27.501714 27.501714 0 0 0 13.5168 23.786057 172.792686 172.792686 0 0 1-2.750171 302.197029 27.209143 27.209143 0 0 0 14.189714 50.439314c6.378057 0.058514 13.9264-3.6864 13.9264-3.6864a227.210971 227.210971 0 0 0 116.765257-198.685257zM774.5536 177.122743c-5.090743-2.984229-10.093714-5.500343-16.1792-5.500343a27.092114 27.092114 0 0 0-27.092114 27.0336c0 10.795886 6.407314 19.485257 15.418514 24.3712 99.357257 57.987657 166.151314 165.536914 166.151314 288.797257 0 123.201829-66.706286 230.751086-165.917257 288.709486-8.718629 4.739657-16.237714 13.633829-16.237714 24.751543 0 14.9504 12.141714 27.092114 27.062857 27.092114 5.997714 0 10.795886-2.311314 15.9744-5.354057 115.273143-67.291429 192.804571-192.073143 192.804571-335.199086 0-142.716343-77.180343-267.351771-191.985371-334.701714zM128.321829 323.730286h134.319542c17.934629 0 45.4656-7.402057 165.507658-95.349029 21.386971-15.681829 42.335086-31.422171 60.416-45.2608l0.468114 354.186972c0 15.067429 12.229486 27.2384 27.296914 27.2384a27.267657 27.267657 0 0 0 27.355429-27.2384l-1.345829-401.993143c0-12.6976-7.255771-24.195657-18.6368-29.666743a32.885029 32.885029 0 0 0-34.786743 3.861943c-0.497371 0.380343-48.654629 38.7072-101.9904 77.970285C294.268343 255.765943 267.293257 267.117714 261.822171 268.931657H145.759086c-0.672914 0-1.345829 0.087771-1.960229 0.087772H84.494629A27.0336 27.0336 0 0 0 57.461029 296.082286v431.9232c0 14.9504 12.0832 27.0336 27.0336 27.0336h198.802285c5.383314 1.930971 30.866286 13.780114 113.0496 80.808228 47.835429 39.029029 90.784914 77.121829 91.165257 77.443657a32.885029 32.885029 0 0 0 54.798629-24.634514l0.029257-151.698286-0.029257-1.141028v-0.789943h-0.058514a27.092114 27.092114 0 0 0-54.125715 1.960229l0.438858 99.269485c-14.570057-12.317257-30.837029-25.834057-47.455086-39.292343-109.7728-88.941714-136.981943-96.373029-155.384686-96.373028-0.380343 0-0.672914 0.087771-1.024 0.087771-0.4096 0-0.702171-0.087771-1.053257-0.087771H134.5536c-18.929371 0-23.3472-5.3248-23.3472-24.400457V344.707657c0-12.873143 1.521371-20.977371 17.115429-20.977371z" p-id="2389" fill="#2D71E8"></path></svg>