<?xml version="1.0" standalone="no"?><!DOCTYPE svg PUBLIC "-//W3C//DTD SVG 1.1//EN" "http://www.w3.org/Graphics/SVG/1.1/DTD/svg11.dtd"><svg t="1507949763645" class="icon" style="" viewBox="0 0 1029 1024" version="1.1" xmlns="http://www.w3.org/2000/svg" p-id="3341" xmlns:xlink="http://www.w3.org/1999/xlink" width="64.3125" height="64"><defs><style type="text/css"></style></defs><path d="M697.1 371.57875 726.62 401.1 753.8425 373.87625 724.5 344.5325 699.3975 369.635Z" p-id="3342"></path><path d="M640.7525 0 0 0l1028.2275 1023.99875L1028.2275 387.48 640.7525 0zM475.95125 283.01375c-8.96-51.61875-6.24875-96.1675 8.13125-133.6425l-1.41375-1.415-80.61 80.60875-13.08125-13.08125 80.61-80.61-1.59125-1.59c-41.48625 16.26375-86.68 18.6775-135.58625 7.2475l4.59625-19.09125c43.84 12.73 84.20375 13.3775 121.09125 1.94625l-58.51375-58.51375 12.37375-12.375 70.00375 70.005 31.29-31.29125L453.85375 31.8125l12.37375-12.3725L525.625 78.83625l24.21875-24.21875 13.08125 13.08125-24.2175 24.21875 60.63375 60.635-12.3725 12.3725-60.635-60.63375-31.29 31.29 70.00375 70.00375-12.37375 12.37375-58.33625-58.33625c-10.375 33.94-9.78375 74.245 1.7675 120.91375L475.95125 283.01375zM528.8075 357.0825l98.64125-98.64125c-14.495 2.475-28.22625 3.9475-41.18875 4.42l9.1925-17.6775c39.95125-3.18375 77.95875-14.6725 114.02125-34.4725l6.54 17.5c-18.38625 9.42875-36.89 16.9725-55.50625 22.62875l-118.97125 118.97125L528.8075 357.0825zM683.84 488.07375l-15.38 9.01625c-23.21625-26.52-38.715-54.5075-46.49125-83.96875-19.2075 0.11625-40.59875-8.54625-64.17-25.98625l6.1875-17.14875c20.15125 16.1425 38.18375 24.3975 54.09125 24.75-3.06375-17.91625-3.4175-36.1775-1.06-54.80125l16.44 3.005c-1.8875 16.73625-1.475 33.29625 1.23625 49.67375 11.665-4.12375 24.15875-11.78375 37.47625-22.98l-39.5975-39.59875 50.0275-50.0275 40.30375 40.305 16.795-16.795-46.31625-46.31625 12.1975-12.1975 46.31625 46.31625 18.03125-18.03125 12.905 12.905-18.03125 18.03125 48.61375 48.61375-12.1975 12.1975-48.61375-48.61375-16.795 16.795 41.36625 41.365-50.0275 50.0275-42.0725-42.07375c-17.32375 14.4975-32.7075 23.7475-46.13875 27.755C646.95375 437.635 661.92 463.5575 683.84 488.07375zM874.76 657.0725c-12.37375 12.37375-24.74875 12.37375-37.1225 0l-20.33-20.32875 9.1925-15.91125c8.9575 9.8975 15.26125 16.675 18.91625 20.33 6.48 6.48 13.43375 6.01 20.86-1.41625l30.7575-30.7575-48.0825-48.0825-51.79625 51.79625-13.0825-13.0825 51.7975-51.795-45.60875-45.60875c-24.7525 20.74125-50.08625 32.8775-76.015 36.4175l-1.06-18.38625c27.105-4.4775 52.91375-18.62 77.42625-42.42625l84.85375-84.8525 131.69875 131.6975L874.76 657.0725z" p-id="3343"></path><path d="M920.729148 462.969924l-30.4053 30.4053-44.901734-44.901734 30.4053-30.4053 44.901734 44.901734Z" p-id="3344"></path><path d="M981.894176 524.133632l-30.4053 30.4053-48.081916-48.081916 30.4053-30.4053 48.081916 48.081916Z" p-id="3345"></path><path d="M878.475427 505.20454l-30.935625 30.935625-44.901734-44.901734 30.935625-30.935625 44.901734 44.901734Z" p-id="3346"></path><path d="M684.19375 358.6725 686.49125 356.73 711.59375 331.6275 683.31 303.34375 656.08625 330.56625Z" p-id="3347"></path><path d="M939.644089 566.384631l-30.935625 30.935625-48.081916-48.081916 30.935625-30.935625 48.081916 48.081916Z" p-id="3348"></path></svg>