<?xml version="1.0" standalone="no"?><!DOCTYPE svg PUBLIC "-//W3C//DTD SVG 1.1//EN" "http://www.w3.org/Graphics/SVG/1.1/DTD/svg11.dtd"><svg t="1507539778403" class="icon" style="" viewBox="0 0 1024 1024" version="1.1" xmlns="http://www.w3.org/2000/svg" p-id="2318" xmlns:xlink="http://www.w3.org/1999/xlink" width="64" height="64"><defs><style type="text/css"></style></defs><path d="M716.288 729.088l-156.16 0 0-113.152c148.992-22.528 263.168-151.04 263.168-306.176 0-170.496-138.752-309.76-309.76-309.76s-309.76 138.752-309.76 309.76c0 155.136 114.688 283.648 263.168 306.176l0 113.152-156.16 0c-25.6 0-46.08 20.48-46.08 46.08 0 25.6 20.48 46.08 46.08 46.08l156.16 0 0 156.16c0 25.6 20.48 46.08 46.08 46.08s46.08-20.48 46.08-46.08l0-156.16 156.16 0c25.6 0 46.08-20.48 46.08-46.08C762.368 749.568 741.888 729.088 716.288 729.088zM296.96 309.248c0-119.808 97.28-217.088 217.088-217.088s217.088 97.28 217.088 217.088c0 119.808-97.28 217.088-217.088 217.088S296.96 429.056 296.96 309.248z" p-id="2319" fill="#2D71E8"></path></svg>